HIERARCHY
ROOT Hips
{
     OFFSET 1.88212 96.90440 -13.34250
     CHANNELS 6 Xposition Yposition Zposition Zrotation Xrotation Yrotation
     JOINT Spine
     {
          OFFSET 0.00000 11.89050 0.00000
          CHANNELS 3 Zrotation Xrotation Yrotation
          JOINT Spine1
          {
               OFFSET -0.00000 25.65740 0.12766
               CHANNELS 3 Zrotation Xrotation Yrotation
               JOINT HEad
               {
                    OFFSET 0.00000 8.73416 0.01134
                    CHANNELS 3 Zrotation Xrotation Yrotation
                    End Site
                    {
                         OFFSET -0.29000 12.77420 2.51395
                    }
               }
               JOINT LeftShoulder1
               {
                    OFFSET 8.99000 -0.36225 -0.22000
                    CHANNELS 3 Zrotation Xrotation Yrotation
                    JOINT LeftArm
                    {
                         OFFSET 10.28270 -0.00338 0.32212
                         CHANNELS 3 Zrotation Xrotation Yrotation
                         JOINT LeftForeArm
                         {
                              OFFSET 32.76690 0.09914 -1.42434
                              CHANNELS 3 Zrotation Xrotation Yrotation
                              JOINT LeftHand
                              {
                                   OFFSET 27.56430 0.08536 1.02216
                                   CHANNELS 3 Zrotation Xrotation Yrotation
                                   End Site
                                   {
                                        OFFSET 16.74430 -0.60000 1.50291
                                   }
                              }
                         }
                    }
               }
               JOINT RightShoulder
               {
                    OFFSET -8.99000 -0.36225 -0.22000
                    CHANNELS 3 Zrotation Xrotation Yrotation
                    JOINT RightArm
                    {
                         OFFSET -10.28270 -0.00338 0.32212
                         CHANNELS 3 Zrotation Xrotation Yrotation
                         JOINT RightForeArm
                         {
                              OFFSET -32.89710 0.09914 -1.42434
                              CHANNELS 3 Zrotation Xrotation Yrotation
                              JOINT RightHand
                              {
                                   OFFSET -27.49210 0.08536 1.02216
                                   CHANNELS 3 Zrotation Xrotation Yrotation
                                   End Site
                                   {
                                        OFFSET -16.63120 -0.60000 1.50291
                                   }
                              }
                         }
                    }
               }
          }
     }
     JOINT LeftUpLeg
     {
          OFFSET 8.94580 -8.66707 0.10165
          CHANNELS 3 Zrotation Xrotation Yrotation
          JOINT LeftLeg
          {
               OFFSET 0.00000 -44.42270 1.37270
               CHANNELS 3 Zrotation Xrotation Yrotation
               JOINT LeftFoot
               {
                    OFFSET -0.25355 -42.09240 -1.46059
                    CHANNELS 3 Zrotation Xrotation Yrotation
                    JOINT LeftToes
                    {
                         OFFSET -0.04000 -4.41509 8.49910
                         CHANNELS 3 Zrotation Xrotation Yrotation
                         End Site
                         {
                              OFFSET 0.08000 -0.04745 9.77979
                         }
                    }
               }
          }
     }
     JOINT RightUpLeg
     {
          OFFSET -8.94580 -8.66707 0.10165
          CHANNELS 3 Zrotation Xrotation Yrotation
          JOINT RightLeg
          {
               OFFSET 0.00000 -44.42270 1.37270
               CHANNELS 3 Zrotation Xrotation Yrotation
               JOINT RightFoot
               {
                    OFFSET 0.25355 -42.09240 -1.46059
                    CHANNELS 3 Zrotation Xrotation Yrotation
                    JOINT RightToes
                    {
                         OFFSET 0.04000 -4.41509 8.49910
                         CHANNELS 3 Zrotation Xrotation Yrotation
                         End Site
                         {
                              OFFSET -0.08000 -0.13745 9.77979
                         }
                    }
               }
          }
     }
}
MOTION
Frames: 20
Frame Time: 0.01667
47.51223 95.40431 8.54226 0.83827 18.00274 151.46648 -9.59582 23.59668 -2.73699 0.02250 -0.00201 -0.01438 -4.26786 -1.82947 25.39585 2.26696 9.24935 -1.91937 -147.26485 -33.22819 -135.58221 -82.07565 66.11890 -35.92255 29.01687 9.01497 -8.06200 13.34476 8.82802 -8.14654 76.36173 -18.08478 89.55448 -12.36571 23.14865 100.83305 21.11624 13.19715 0.83694 1.40949 5.06632 -10.82642 -17.55914 2.85675 77.80769 11.49758 -0.03017 -0.02961 24.91030 44.39803 -72.77706 -21.56167 -1.95861 9.44559 33.97024 21.39398 -49.17732 34.94611 -0.07862 -0.09850 -53.32815 -46.61655 26.40924 
47.27393 96.48859 8.98810 -2.49753 23.59741 148.38533 -15.97039 25.19486 0.98206 0.01962 0.00343 -0.01010 -5.24398 -2.89120 23.77341 1.60548 9.56714 -1.85054 -142.02187 -35.13410 -135.85628 -71.97047 62.96898 -44.75555 29.86849 9.44425 -7.03886 11.75415 9.34432 -7.48272 72.58825 -10.88850 93.65688 -18.47252 21.05502 98.90311 26.06276 0.63130 19.40979 -2.29245 2.69002 -3.45689 -23.12216 13.14720 72.60349 6.47727 -0.13753 -0.16515 33.00248 55.85921 -64.86044 -27.57684 0.51858 15.08818 32.87264 18.64477 -48.15910 42.08033 -0.08664 -0.08658 -60.51300 -44.13761 26.03788 
47.08389 97.59198 9.46718 -5.20886 28.63387 145.75304 -21.20843 25.90790 3.97295 0.01540 0.00993 -0.00440 -6.52579 -3.63710 22.53450 0.67620 10.14190 -1.58814 -133.91258 -39.30522 -134.29179 -59.13001 57.59380 -56.06932 30.60813 9.97803 -6.07305 9.45822 10.17706 -6.22967 68.99776 -3.38652 97.01659 -20.27403 20.41889 97.89828 21.39943 1.72804 7.57128 -4.27719 -1.16368 3.98032 -27.76380 25.46092 66.88931 -2.68019 -0.40171 -0.29745 7.08147 65.41991 -28.71949 -33.27133 2.45129 20.17323 31.74229 15.84915 -47.03855 48.96847 -0.09240 -0.07473 -67.38413 -41.48352 25.53524 
46.95811 98.70313 9.92885 -7.41468 33.13985 143.42633 -25.34366 26.00807 6.26101 0.01035 0.01634 0.00160 -8.07018 -4.14736 21.61950 -0.52685 10.89795 -0.87454 -123.35255 -44.73452 -129.65883 -43.25278 50.00909 -65.33687 30.85847 22.26604 4.94558 6.58102 11.18307 -4.43783 65.71191 4.22084 100.04811 -19.26808 20.52915 97.02571 24.26166 5.51151 5.26170 -4.55637 -6.09893 11.55677 -29.82249 38.95488 60.76698 -20.56289 -0.80893 -0.51706 -26.73556 69.80100 18.36459 -38.55075 3.94384 24.71404 30.58389 12.98198 -45.88575 55.46531 -0.09287 -0.06197 -73.90584 -38.70974 24.88833 
46.91236 99.78461 10.36884 -9.19136 37.16075 141.29901 -28.48025 25.71090 7.94682 -0.00059 0.02344 0.00817 -9.81293 -4.49013 20.96157 -1.97875 11.77724 0.30332 -109.66473 -50.08940 -120.63357 -29.85949 38.94360 -69.54805 28.63420 9.91496 -6.31467 3.30570 12.23559 -2.13118 63.89720 8.32123 101.96739 -13.16943 21.39529 96.57577 21.89172 3.54454 12.23901 -3.17455 -11.74245 19.40191 -27.21025 52.05185 53.91078 -22.96892 -0.11854 -0.04715 -54.92408 57.82039 45.65091 -43.33027 5.11138 28.72046 29.39025 10.07705 -44.77311 61.43128 -0.08624 -0.05045 -80.02540 -35.89269 24.02475 
46.94633 100.78246 10.76352 -10.57895 40.74277 139.28813 -30.72747 25.17140 9.13844 -0.00991 0.02682 0.01186 -11.70975 -4.70708 20.51703 -3.58497 12.72073 1.74904 -92.09340 -53.63629 -106.34999 -19.69331 25.09844 -69.02253 23.92362 19.07436 10.56464 -0.02072 13.24211 0.26556 62.87199 11.00798 103.30608 -9.38132 21.63510 95.66483 23.72835 12.31579 -1.28654 -0.09314 -17.72943 27.62326 -17.16686 63.57128 43.00991 -47.41061 -0.69091 0.50605 -51.18015 46.60413 52.89487 -47.56427 6.06217 32.20378 28.16082 7.19652 -43.76381 66.75428 -0.07396 -0.04253 -85.66630 -33.08863 22.91569 
47.04004 101.59970 11.14394 -11.61289 43.94400 137.34666 -32.24231 24.51025 9.93347 -0.01766 0.02863 0.01333 -13.70717 -4.83375 20.26012 -5.42412 13.73286 3.32515 -71.99934 -53.52571 -88.33932 -11.82166 9.39448 -65.28068 21.38471 10.40768 -8.79057 -3.34106 14.23246 2.52459 62.27144 13.34129 104.48776 -7.23706 21.81520 94.64316 22.48121 2.44102 21.20315 5.03036 -23.60786 36.35484 -3.13022 70.79543 30.51033 -31.23831 0.21303 -0.63665 -80.82242 34.77437 58.15162 -51.24979 6.85630 35.17279 26.93101 4.45718 -42.91255 71.37964 -0.05810 -0.03770 -92.70741 -19.70812 7.67469 
47.16583 102.20642 11.51375 -12.32098 46.81759 135.45082 -33.18127 23.83811 10.41309 -0.02028 0.03311 0.01625 -15.77374 -4.91688 20.16372 -7.43101 14.80440 4.85876 -53.81311 -48.89347 -71.14123 -5.19469 -7.44638 -59.27333 15.68697 11.81553 9.70540 -6.75779 15.21248 4.90571 61.86732 19.04357 106.44241 -9.31751 22.84810 92.55318 21.56961 3.55119 18.39995 12.52958 -28.88917 45.64300 14.04982 74.80180 14.73782 -30.17296 -0.00672 -0.14562 -82.03889 29.31007 50.79909 -54.59420 7.55083 36.58235 25.84474 2.31873 -41.23618 75.26588 -0.04220 -0.03592 -96.28645 -23.63284 14.78426 
47.31857 102.56836 11.85723 -12.69070 49.39146 133.56645 -33.68369 23.22990 10.63221 -0.02520 0.03597 0.01644 -17.84688 -4.97794 20.23207 -9.47584 15.96248 6.29688 -40.95965 -40.60172 -58.11138 1.08007 -24.74952 -51.67036 7.82773 3.50153 -7.93814 -9.97130 16.24629 7.09449 61.44243 22.98264 107.96394 -10.35807 23.55799 91.32436 22.04465 5.85448 17.27316 22.57459 -33.03968 55.36001 35.78062 75.85950 -6.23938 -30.07518 -0.02873 -0.06196 -69.58689 38.31660 46.27475 -57.53344 7.98664 36.57633 26.13769 0.55924 -40.86512 77.30630 0.00672 -0.05301 -99.58585 -20.30418 12.75870 
47.48874 102.68440 12.10368 -12.65753 51.68217 131.61990 -34.27051 23.84999 10.72153 -0.04528 0.13175 0.00816 -19.69840 -6.26473 20.12783 -10.99820 15.90277 7.47141 -33.52947 -30.25706 -49.04507 6.38089 -42.43827 -43.51707 8.37914 8.55840 6.53398 -12.54269 16.03367 8.99416 60.86421 25.87004 109.04006 -5.72873 23.67254 91.03749 22.01252 9.59728 11.66931 34.64790 -35.54835 64.94147 54.86531 73.89516 -26.45930 -29.46860 -0.02160 -0.10109 -63.75225 44.15827 47.12618 -59.94489 8.10302 35.30275 26.19599 0.15186 -39.58514 79.30990 -0.00484 -0.05663 -101.78899 -21.25523 16.00838 
47.67032 102.63278 12.14567 -12.13036 53.70069 129.49756 -34.89862 25.47571 10.84058 -0.04425 0.12632 0.01707 -21.35979 -8.29022 19.75089 -11.67778 14.92149 8.22936 -30.27059 -19.05218 -42.15190 8.76491 -60.59925 -37.84595 -0.36383 7.23627 -16.78018 -14.20929 14.87327 10.36606 60.02841 28.31433 109.60038 -3.30991 23.83388 90.94601 22.45717 13.00428 9.12146 47.66026 -36.13294 73.40518 61.59321 71.10259 -36.08048 -25.42595 0.10956 -0.39955 -60.47995 51.36929 44.75368 -61.83339 7.92110 32.93674 26.13566 1.06397 -37.51751 81.19608 -0.00364 -0.04952 -103.81599 -20.53957 16.43908 
47.84357 102.56306 11.87157 -11.05960 55.43291 127.10318 -34.98385 26.74351 10.83867 -0.02390 0.01856 0.01852 -22.98031 -9.70691 19.56922 -11.93244 14.24052 8.89511 -29.58883 -11.55460 -38.42741 3.73539 -75.87660 -37.15142 2.98936 6.27177 1.55665 -15.23668 13.99012 11.65703 59.09895 30.48314 109.60046 -2.27368 23.96759 91.14359 21.60206 14.56949 7.79710 60.52279 -35.14911 79.84843 58.87669 69.28342 -37.74222 -27.79069 -0.12234 0.19107 -53.91987 56.14923 41.42659 -63.29646 7.88212 30.75803 25.74028 2.31284 -35.54232 82.95371 -0.00118 -0.04283 -105.14265 -21.13192 18.13896 
47.99228 102.54781 11.32851 -9.48209 56.87296 124.43427 -34.51887 27.65967 10.75939 -0.02362 0.01157 0.01653 -24.52268 -10.70007 19.46968 -12.17905 13.73108 9.69772 -29.92781 -6.72521 -36.13777 -20.53089 -84.75854 -58.24252 -4.69497 13.92144 -15.23843 -15.88682 13.30352 12.84857 58.29565 32.38188 109.23729 -2.06175 24.06943 91.61689 21.44472 15.90464 7.16728 72.55676 -33.20209 83.85395 49.06950 68.45524 -32.75745 -30.03415 -0.14800 0.23259 -51.51254 56.29884 39.51076 -64.41806 7.97005 28.79451 25.00815 3.74892 -33.63538 84.55522 -0.00031 -0.03719 -106.01224 -21.50427 19.08141 
48.07710 102.57736 10.56644 -7.49019 58.01313 121.55823 -33.55426 28.25737 10.61356 -0.02422 0.01268 0.01517 -25.98208 -11.21816 19.46171 -12.63533 13.55208 10.47892 -30.69043 -3.87412 -34.28800 -99.44980 -85.89368 -135.08446 -0.48785 11.99999 -8.93672 -16.44007 12.98592 13.93976 57.74266 33.97573 108.65189 -2.26794 24.14061 92.27715 20.75887 16.02257 6.66313 83.38867 -30.84336 85.37550 31.90541 67.74078 -20.20913 -30.05459 -0.00584 0.02510 -52.79972 54.15037 40.12125 -65.25264 8.13970 27.04016 23.97764 5.23101 -31.79827 85.91682 -0.00083 -0.03122 -106.28086 -22.21465 20.27913 
48.05836 102.59322 9.61561 -5.20767 58.84155 118.59065 -32.15799 28.58195 10.38115 -0.02555 0.01629 0.01333 -27.34720 -11.31325 19.54061 -13.38990 13.76809 11.12786 -31.78822 -2.38773 -32.60736 -123.09250 -82.92260 -157.27058 -4.04922 15.78116 -16.96816 -17.11147 13.11567 14.91053 57.47065 35.21804 107.93977 -2.62026 24.22850 93.00314 20.68249 15.94065 6.03986 92.73440 -28.48965 84.55926 10.36146 65.15849 -2.37545 -30.03831 0.01010 0.01544 -53.41286 51.00605 40.98158 -65.83881 8.33533 25.46850 22.74234 6.65450 -30.05262 86.93556 -0.00213 -0.02440 -106.04352 -22.84967 21.23175 
47.90722 102.47781 8.55367 -2.76380 59.35746 115.66206 -30.40982 28.69473 10.03789 -0.02844 0.02245 0.01274 -28.60523 -11.05906 19.69679 -14.47355 14.32176 11.64493 -33.18095 -1.73506 -30.91724 -127.08587 -80.65191 -160.01459 -1.97131 13.97573 -11.93635 -18.16778 13.57696 15.89736 57.81269 35.91702 107.04057 -2.79664 24.47177 93.66712 20.30220 15.30240 5.42575 100.32885 -26.44413 81.63107 -8.68085 61.40961 14.93903 -30.04148 0.00093 0.02123 -51.24144 46.90651 38.36429 -66.19584 8.49033 24.04822 21.43984 7.99242 -28.43891 87.51842 -0.00310 -0.01669 -105.30074 -23.51434 22.20928 
47.63007 102.15326 7.43978 -0.29110 59.56372 112.91326 -28.40256 28.63782 9.56336 -0.03172 0.02799 0.01147 -29.73829 -10.51533 19.92998 -15.82578 15.19959 12.03750 -34.83001 -1.59837 -29.27798 -126.21275 -79.12847 -158.14833 -4.01089 15.74115 -16.39494 -19.57781 14.36308 16.79602 58.60909 36.11174 106.11670 -2.65155 24.86466 94.15602 20.31753 14.66806 4.58594 105.98235 -24.92935 76.85917 -24.21329 56.53479 30.83342 -30.04781 -0.02185 0.02640 -47.21107 41.53936 32.85941 -66.32893 8.55789 22.74619 20.21330 9.27080 -26.99958 87.61806 -0.00332 -0.00875 -104.11966 -24.10849 23.09106 
47.25243 101.57098 6.38308 2.08781 59.48517 110.47993 -27.22764 29.39178 9.59262 -0.08903 0.12049 0.02240 -30.11481 -10.65054 19.47746 -16.50584 15.30188 11.88959 -36.65860 -1.70069 -27.75610 -123.64336 -78.10044 -154.84306 -2.17682 7.14870 4.80960 -20.23577 14.46183 16.85461 59.48344 36.02299 105.23788 -2.30947 25.32253 94.54298 20.14075 13.84140 3.68393 109.64406 -24.06698 70.52364 -36.41975 50.96748 45.52859 -30.04628 -0.05168 0.03910 -42.29423 32.71225 27.52916 -66.23072 8.52058 21.53824 19.18511 10.54812 -25.77756 87.22634 -0.00312 -0.00125 -102.57555 -24.66175 23.92178 
46.81544 100.76263 5.54866 4.27069 59.19048 108.46297 -27.24441 31.03302 10.17322 -0.10010 0.10283 0.00966 -29.63700 -11.46012 18.50970 -16.24898 14.66936 11.39844 -38.57018 -1.91065 -26.44195 -123.38280 -77.85523 -149.53635 -5.55593 15.48674 -12.77542 -20.42991 13.74862 16.05811 62.88548 34.89559 99.86049 -2.10499 27.22668 98.63362 20.13224 13.11090 2.73843 111.40805 -23.90907 62.95605 -47.49605 47.42269 59.27031 -27.69146 -0.04863 0.01882 -49.68604 49.27524 50.00275 -65.88950 8.37691 20.41877 18.44348 11.88925 -24.82077 86.34575 -0.00332 0.00524 -100.79280 -25.18326 24.62648 
46.34702 99.83562 5.10308 6.16184 58.76567 106.92306 -28.47424 33.20247 11.30969 -0.09586 0.08255 0.00088 -28.38052 -12.76568 17.18704 -14.96553 13.46523 10.51489 -44.24179 -1.45090 -24.61547 -112.33371 -77.33895 -139.44295 -3.66902 9.72181 -7.32900 -19.45857 12.59565 14.46102 64.64886 34.59312 96.68999 -1.62481 27.84532 96.42850 16.16908 4.52534 -10.31720 111.20015 -24.35550 54.72267 -57.26616 44.21397 70.93494 -28.09969 -0.00169 -0.02521 -47.14569 45.53631 43.49459 -65.14636 7.31842 20.18010 18.45245 13.99567 -25.23325 85.00137 -0.00635 0.01043 -98.89993 -25.87483 25.13559 
